<?xml version="1.0" encoding="UTF-8"?>
<svg width="32px" height="32px" viewBox="0 0 32 32" version="1.1" xmlns="http://www.w3.org/2000/svg">
    <title>GitHub</title>
    <g stroke="none" stroke-width="1" fill="none" fill-rule="evenodd">
        <circle fill="#24292E" cx="16" cy="16" r="16"></circle>
        <path d="M16,8 C11.6,8 8,11.6 8,16 C8,19.7 10.3,22.9 13.7,24 C14.1,24.1 14.3,23.8 14.3,23.6 C14.3,23.4 14.3,22.8 14.3,22.1 C12,22.6 11.5,21.1 11.5,21.1 C11.1,20.1 10.5,19.8 10.5,19.8 C9.7,19.3 10.6,19.3 10.6,19.3 C11.5,19.4 11.9,20.2 11.9,20.2 C12.7,21.5 14,21.1 14.3,20.9 C14.4,20.3 14.6,19.9 14.9,19.7 C13,19.5 11,18.8 11,15.6 C11,14.6 11.3,13.8 11.9,13.2 C11.8,13 11.5,12.2 12,10.9 C12,10.9 12.8,10.7 14.3,11.7 C14.9,11.5 15.4,11.4 16,11.4 C16.6,11.4 17.1,11.5 17.7,11.7 C19.2,10.7 20,10.9 20,10.9 C20.5,12.2 20.2,13 20.1,13.2 C20.7,13.8 21,14.6 21,15.6 C21,18.8 19,19.5 17.1,19.7 C17.4,20 17.7,20.5 17.7,21.3 C17.7,22.4 17.7,23.3 17.7,23.6 C17.7,23.8 17.9,24.1 18.3,24 C21.7,22.9 24,19.7 24,16 C24,11.6 20.4,8 16,8 Z" fill="#FFFFFF" fill-rule="nonzero"></path>
    </g>
</svg> 