<?xml version="1.0" encoding="UTF-8"?>
<svg width="32px" height="32px" viewBox="0 0 32 32" version="1.1" xmlns="http://www.w3.org/2000/svg">
    <title>LinkedIn</title>
    <g stroke="none" stroke-width="1" fill="none" fill-rule="evenodd">
        <rect fill="#0077B5" x="0" y="0" width="32" height="32" rx="2"></rect>
        <path d="M11,24 L8,24 L8,13 L11,13 L11,24 Z M9.5,11.5 C8.4,11.5 7.5,10.6 7.5,9.5 C7.5,8.4 8.4,7.5 9.5,7.5 C10.6,7.5 11.5,8.4 11.5,9.5 C11.5,10.6 10.6,11.5 9.5,11.5 Z M24,24 L21,24 L21,18.5 C21,17.4 21,16 19.5,16 C18,16 17.8,17.1 17.8,18.3 L17.8,24 L15,24 L15,13 L17.8,13 L17.8,14.3 C18.3,13.5 19.3,13 20.5,13 C23.6,13 24,15 24,17.5 L24,24 Z" fill="#FFFFFF" fill-rule="nonzero"></path>
    </g>
</svg> 